<svg
  xmlns="http://www.w3.org/2000/svg"
  width="1200"
  height="1200"
  viewBox="0 0 1200 1200"
  fill="none"
>
  <!-- Square background with curved (rounded) corners -->
  <rect width="1200" height="1200" fill="#EAEAEA" rx="100" />

  <!-- The large faded circle and diagonal lines -->
  <g opacity=".5">
    <!-- Outer circle -->
    <g opacity=".5">
      <path
        fill="#FAFAFA"
        d="M600.709 736.5c-75.454 0-136.621-61.167-136.621-136.62 0-75.454 61.167-136.621 136.621-136.621 75.453 0 136.62 61.167 136.62 136.621 0 75.453-61.167 136.62-136.62 136.62Z"
      />
      <path
        stroke="#C9C9C9"
        stroke-width="2.418"
        d="M600.709 736.5c-75.454 0-136.621-61.167-136.621-136.62 0-75.454 61.167-136.621 136.621-136.621 75.453 0 136.62 61.167 136.62 136.621 0 75.453-61.167 136.62-136.62 136.62Z"
      />
    </g>

    <!-- Decorative diagonal lines -->
    <path
      stroke="url(#a)"
      stroke-width="2.418"
      d="M0-1.209h553.581"
      transform="scale(1 -1) rotate(45 1163.11 91.165)"
    />
    <path
      stroke="url(#b)"
      stroke-width="2.418"
      d="M404.846 598.671h391.726"
    />
    <path
      stroke="url(#c)"
      stroke-width="2.418"
      d="M599.5 795.742V404.017"
    />
    <path
      stroke="url(#d)"
      stroke-width="2.418"
      d="m795.717 796.597-391.441-391.44"
    />
  </g>

  <!-- The home (property-search) icon centered and scaled to 30 -->
  <g transform="translate(600, 600) scale(30) translate(-12, -12)">
    <path
      fill="#000"
      fill-rule="evenodd"
      d="M5 6.25C5.41421 6.25 5.75 6.58579 5.75 7V17C5.75 17.6904 6.30964 18.25 7 18.25H10C10.4142 18.25 10.75 18.5858 10.75 19C10.75 19.4142 10.4142 19.75 10 19.75H7C5.48122 19.75 4.25 18.5188 4.25 17V7C4.25 6.58579 4.58579 6.25 5 6.25ZM19 6.25C19.4142 6.25 19.75 6.58579 19.75 7V10C19.75 10.4142 19.4142 10.75 19 10.75C18.5858 10.75 18.25 10.4142 18.25 10V7C18.25 6.58579 18.5858 6.25 19 6.25Z"
      clip-rule="evenodd"
    />
    <path
      fill="#000"
      fill-rule="evenodd"
      d="M12.7169 3.41724C12.2865 3.11596 11.7136 3.11596 11.2832 3.41724L2.43016 9.6144C2.09082 9.85193 1.62318 9.76941 1.38564 9.43007C1.1481 9.09073 1.23063 8.62308 1.56997 8.38555L10.423 2.1884C11.3699 1.52558 12.6302 1.52558 13.5771 2.1884L22.4302 8.38555C22.7695 8.62308 22.852 9.09073 22.6145 9.43007C22.377 9.76941 21.9093 9.85193 21.57 9.6144L12.7169 3.41724zM15 11.75C13.2051 11.75 11.75 13.2051 11.75 15C11.75 16.7949 13.2051 18.25 15 18.25C16.7949 18.25 18.25 16.7949 18.25 15C18.25 13.2051 16.7949 11.75 15 11.75zM10.25 15C10.25 12.3766 12.3766 10.25 15 10.25C17.6234 10.25 19.75 12.3766 19.75 15C19.75 17.6234 17.6234 19.75 15 19.75C12.3766 19.75 10.25 17.6234 10.25 15z"
      clip-rule="evenodd"
    />
    <path
      fill="#000"
      fill-rule="evenodd"
      d="M17.14 17.6127C17.4341 17.321 17.909 17.3229 18.2007 17.617L21.0325 20.4718C21.3242 20.7659 21.3222 21.2408 21.0282 21.5325C20.7341 21.8242 20.2592 21.8223 19.9675 21.5282L17.1357 18.6733C16.844 18.3792 16.846 17.9044 17.14 17.6127Z"
      clip-rule="evenodd"
    />
  </g>

  <!-- Gradients definitions (used by diagonal strokes) -->
  <defs>
    <linearGradient
      id="a"
      x1="554.061"
      x2="-.48"
      y1=".083"
      y2=".087"
      gradientUnits="userSpaceOnUse"
    >
      <stop stop-color="#C9C9C9" stop-opacity="0" />
      <stop offset=".208" stop-color="#C9C9C9" />
      <stop offset=".792" stop-color="#C9C9C9" />
      <stop offset="1" stop-color="#C9C9C9" stop-opacity="0" />
    </linearGradient>
    <linearGradient
      id="b"
      x1="796.912"
      x2="404.507"
      y1="599.963"
      y2="599.965"
      gradientUnits="userSpaceOnUse"
    >
      <stop stop-color="#C9C9C9" stop-opacity="0" />
      <stop offset=".208" stop-color="#C9C9C9" />
      <stop offset=".792" stop-color="#C9C9C9" />
      <stop offset="1" stop-color="#C9C9C9" stop-opacity="0" />
    </linearGradient>
    <linearGradient
      id="c"
      x1="600.792"
      x2="600.794"
      y1="403.677"
      y2="796.082"
      gradientUnits="userSpaceOnUse"
    >
      <stop stop-color="#C9C9C9" stop-opacity="0" />
      <stop offset=".208" stop-color="#C9C9C9" />
      <stop offset=".792" stop-color="#C9C9C9" />
      <stop offset="1" stop-color="#C9C9C9" stop-opacity="0" />
    </linearGradient>
    <linearGradient
      id="d"
      x1="404.85"
      x2="796.972"
      y1="403.903"
      y2="796.02"
      gradientUnits="userSpaceOnUse"
    >
      <stop stop-color="#C9C9C9" stop-opacity="0" />
      <stop offset=".208" stop-color="#C9C9C9" />
      <stop offset=".792" stop-color="#C9C9C9" />
      <stop offset="1" stop-color="#C9C9C9" stop-opacity="0" />
    </linearGradient>
  </defs>
</svg>
